<?xml version="1.0" encoding="utf-8"?>
<!-- Generator: Adobe Illustrator 22.1.0, SVG Export Plug-In . SVG Version: 6.00 Build 0)  -->
<svg version="1.1" id="Layer_1" xmlns="http://www.w3.org/2000/svg" xmlns:xlink="http://www.w3.org/1999/xlink" x="0px" y="0px"
	 viewBox="0 0 300 300" style="enable-background:new 0 0 300 300;" xml:space="preserve">
<style type="text/css">
	.st0{fill:#333333;}
	.st1{fill:#808080;}
	.st2{fill:#E6E6E6;}
</style>
<g>
	<polygon class="st0" points="298,146.8 235.5,41.3 148.5,12.2 62.3,41.3 0,146.8 149.1,292.5 	"/>
	<path class="st1" d="M95.1,76.5l25.6,13.1l-11.4,7.6L95.1,76.5z M203,76.5l-25.6,13.1l11.4,7.6L203,76.5z M90.7,10.5L61.3,4.9
		L45.1,15.1L37.9,43l58.4-21.1L90.7,10.5z M253,15.1L236.7,4.9l-29.3,5.6l-5.6,11.4L260.2,43L253,15.1z M148.8,11.9L62.3,41.1
		l66.8,45.8h40.1l66.5-45.8L148.8,11.9z"/>
	<path class="st2" d="M172.7,93.1h-47.4l-17.6,30.4l41.3,30.3l41.3-30.3L172.7,93.1z M129,86.9l20-34.7l20.1,34.6L129,86.9L129,86.9
		z M184.5,155.9l17.1,29.2l-14,0.8L184.5,155.9z M255.4,184.2l-49.7,3l9.8,16.7L255.4,184.2z M167.1,214.6l21.3,2l-2.9-28.2
		l-15.3,0.9L167.1,214.6z M203,187.4l-15.1,0.9l2.9,27.8l22.5-11.1L203,187.4z M204.3,184.9l52.7-3.2L185.5,153L204.3,184.9z
		 M188.9,220.9l-32.8,40.5l35.8-12.1L188.9,220.9z M155.4,258.5l32.1-39.6l-21.1-2L155.4,258.5z M193,125l3.2,8.5l6.3-11.3L193,125z
		 M238.2,98.8L256,87.5l-32.7,6L238.2,98.8z M260.6,87.4L241,99.8l19.8,7.1L260.6,87.4z M253.5,177.8l-37.6-27.4l-27.6,1.1
		L253.5,177.8z M214.5,207.1L194,217.2l27.9,2.6L214.5,207.1z M261,148.6l-41.2,1.7l41.4,30.1L261,148.6z M260.8,115.3v-5.9l-22.3-8
		L209,120.1L260.8,115.3z M260.8,117.7l-49.7,4.6l49.8,12.7L260.8,117.7z M261,146.2v-8.7l-56.2-14.3l-6.4,11.5l18.4,13.4L261,146.2
		z M182.4,149.5L182.4,149.5L182.4,149.5L182.4,149.5L182.4,149.5c0.1,0,0.2,0,0.2-0.1l0,0l0,0l0,0l0,0c0,0,0,0,0.1,0l30.2-1.2
		L196,135.9c-0.2-0.2-0.4-0.4-0.5-0.7l-18.2,3.7l4.8,10.6C182.3,149.5,182.3,149.5,182.4,149.5z M169.1,187.1l16.2-1l-3.7-35
		l-30.1,14.3l16.8,22C168.5,187.2,168.8,187.1,169.1,187.1z M164.7,214.8l3.2-25.9l-45.2,15.2l41.7,11.2
		C164.4,215.1,164.5,214.9,164.7,214.8z M235.6,100.4l-17.3-6.2c-0.4-0.1-0.7-0.5-0.8-0.8l-24.9,6.2l11,21.1L235.6,100.4z
		 M191.1,219.3l3.1,29.5l-3.5,3.5l-36.9,12.5l-4.6,28.1l72.2-70.7L191.1,219.3z M218.5,91.9l39.2-7.2L230.5,73
		c-0.4-0.2-0.7-0.5-0.7-0.9l-20.9,2.8l9.2,17.2C218.3,92,218.4,92,218.5,91.9z M260.9,183.5l-1.5,1.4L216.7,206l7.7,13.2
		L260.9,183.5z M151.3,264.6l-19,11.6l14.9,14.5L151.3,264.6z M151.7,263l12.1-45.8L129,242.4L151.7,263L151.7,263z M263.2,115.1
		l10.7-1l-10.7-3.8V115.1z M234.3,42.4l-22.4,21.1l18,8L234.3,42.4z M297.2,144.9L280,115.8c-0.1,0.1-0.3,0.2-0.5,0.2l-16.3,1.5
		l0.1,18.1l33.4,8.5L297.2,144.9z M290.4,145l-27.1-6.9v8L290.4,145z M232.3,71.3l28.5,12.2l1.6,2.7l-26.7-45.1l1,1.6L232.3,71.3z
		 M297.5,145.5c-0.4,0.5-0.7,1.1-1.1,1.6l-33.1,1.4l0.2,32.4l34.8-34L297.5,145.5z M263.1,107.7l15.2,5.5l-15.3-26L263.1,107.7z"/>
	<polygon class="st0" points="149,123.3 126.8,109.3 133.6,97.9 149,97.9 164.5,97.9 171.3,109.3 	"/>
	<path class="st0" d="M232.7,68.7c-2.6-0.6-4.8,2-3.6,4.6c0.3,0.6,0.8,1.1,1.3,1.3c2.6,1.2,5.2-1,4.6-3.6
		C234.7,69.9,233.8,69,232.7,68.7z M235.4,37.9c-1.8,0-3.2,1.4-3.2,3.2s1.4,3.2,3.2,3.2s3.2-1.4,3.2-3.2
		C238.6,39.3,237.2,37.9,235.4,37.9z M261.1,88c1.8,0,3.2-1.4,3.2-3.2c0-1.8-1.4-3.2-3.2-3.2s-3.2,1.4-3.2,3.2
		C258,86.6,259.4,88,261.1,88z M296.8,143.1c-1.8,0-3.2,1.4-3.2,3.2s1.4,3.2,3.2,3.2c1.8,0,3.2-1.4,3.2-3.2S298.5,143.1,296.8,143.1
		z M278.3,111.8c-1.8,0-3.2,1.4-3.2,3.2c0,1.8,1.4,3.2,3.2,3.2c1.8,0,3.2-1.4,3.2-3.2C281.5,113.2,280.1,111.8,278.3,111.8z
		 M261.2,178.5c-1.8,0-3.2,1.4-3.2,3.2s1.4,3.2,3.2,3.2c1.8,0,3.2-1.4,3.2-3.2S263,178.5,261.2,178.5z M192.8,218
		c0-1.8-1.4-3.2-3.2-3.2s-3.2,1.4-3.2,3.2s1.4,3.2,3.2,3.2C191.4,221.1,192.8,219.7,192.8,218z M221.5,93.1c0-1.8-1.4-3.2-3.2-3.2
		s-3.2,1.4-3.2,3.2c0,1.8,1.4,3.2,3.2,3.2S221.5,94.9,221.5,93.1z M204.1,118.6c-1.8,0-3.2,1.4-3.2,3.2c0,1.8,1.4,3.2,3.2,3.2
		s3.2-1.4,3.2-3.2S205.9,118.6,204.1,118.6z M196.8,131.6c-1.8,0-3.2,1.4-3.2,3.2s1.4,3.2,3.2,3.2s3.2-1.4,3.2-3.2
		S198.5,131.6,196.8,131.6z M182.8,147.5c-1.8,0-3.2,1.4-3.2,3.2s1.4,3.2,3.2,3.2s3.2-1.4,3.2-3.2S184.6,147.5,182.8,147.5z
		 M169.1,185.1c-1.8,0-3.2,1.4-3.2,3.2s1.4,3.2,3.2,3.2s3.2-1.4,3.2-3.2S170.9,185.1,169.1,185.1z M165.4,212.6
		c-1.8,0-3.2,1.4-3.2,3.2s1.4,3.2,3.2,3.2s3.2-1.4,3.2-3.2C168.6,214,167.1,212.6,165.4,212.6z M152.8,260.4c-1.8,0-3.2,1.4-3.2,3.2
		c0,1.8,1.4,3.2,3.2,3.2s3.2-1.4,3.2-3.2S154.6,260.4,152.8,260.4z M192.8,246.5c-1.8,0-3.2,1.4-3.2,3.2s1.4,3.2,3.2,3.2
		s3.2-1.4,3.2-3.2S194.6,246.5,192.8,246.5z M149.7,288.8c-2.2-0.4-4.2,1.5-3.7,3.7c0.2,1.2,1.3,2.3,2.5,2.5
		c2.2,0.4,4.2-1.5,3.7-3.7C151.9,290.1,150.9,289,149.7,288.8z M223.2,218c-1.8,0-3.2,1.4-3.2,3.2s1.4,3.2,3.2,3.2s3.2-1.4,3.2-3.2
		S224.9,218,223.2,218z"/>
</g>
</svg>
