<?xml version="1.0" encoding="utf-8"?>
<!-- Generator: Adobe Illustrator 22.1.0, SVG Export Plug-In . SVG Version: 6.00 Build 0)  -->
<svg version="1.1" id="Layer_1" xmlns="http://www.w3.org/2000/svg" xmlns:xlink="http://www.w3.org/1999/xlink" x="0px" y="0px"
	 viewBox="0 0 300 300" style="enable-background:new 0 0 300 300;" xml:space="preserve">
<style type="text/css">
	.st0{fill:#095270;}
	.st1{fill:#3D8AAB;}
	.st2{fill:#7FCDEE;}
</style>
<g>
	<polygon class="st0" points="297,146.9 234.7,41.7 148,12.7 62.1,41.7 0,146.9 149.1,291.5 	"/>
	<path class="st1" d="M148.2,12.7l86.6,29l-66.2,45.6h-39.9L62.2,41.7L148.2,12.7z M108.9,97.5l11.4-7.6l-25.5-13L108.9,97.5z
		 M188.1,97.5l14.1-20.6l-25.5,13L188.1,97.5z M90.4,11.3L61.3,5.7L45.1,15.8l-7.2,27.7l58.1-21L90.4,11.3z M251.9,15.8L235.7,5.7
		l-29.2,5.6L201,22.6l58.1,21L251.9,15.8z"/>
	<path class="st2" d="M271.5,103.9l25.5,43l-1.9-3.2l-85.5-22.9l61.7-16.8C271.4,103.9,271.5,103.9,271.5,103.9z M246,60.7
		l-16.1,10.5l38.5,27.4L246,60.7z M296.2,147.7l-51.3,16.5l16.2,17.8l35.9-35.1L296.2,147.7z M267.1,101.7l-43-30l-0.1,0l-18.3,46.6
		L267.1,101.7z M290.9,145.9l-83.1-22.3l34.6,37.9L290.9,145.9z M183.8,153l8.8-17.2l-15.9,3.3L183.8,153z M192.2,125.2l2.5,6.5
		l4.4-8.5L192.2,125.2z M208.9,229.5l-39.7-39L155.1,260L208.9,229.5z M166.9,186.2l16.8-32.8l-32.7,12L166.9,186.2z M202.8,123
		l-31.4,61.4l67.5-21.8L202.8,123z M241.4,165.3l-61.7,19.9l77.8-2.3L241.4,165.3z M189.6,123.7l-17.5-30.3h-47.1l-17.5,30.3
		l41.1,30.2L189.6,123.7z M160.7,215.8L128.5,242l22.7,20.6L160.7,215.8z M166.1,189l-43.9,14.8l38.5,11.7L166.1,189z M172.1,188.7
		l40.7,40c0.1,0.1,0.2,0.3,0.2,0.4l-4.5,4.4l-54.2,30.7l-2,24.3l-3.2,3.1l0,0l107.7-105.5L172.1,188.7z M148.3,290.9l2.8-27
		l-18.8,11.6l16.6,16L148.3,290.9z M231,45.2L211,64l10.5,4.8C225.4,58.9,229,50.1,231,45.2z M234.8,41.8l0.7,1.1l-10.8,27.4l0.1,0
		l19.6-12.5l0.9,1.5l-10.5-17.7l-0.1,0C234.7,41.7,234.7,41.7,234.8,41.8z M148.5,52.7l-20,34.5h39.9L148.5,52.7z M219.8,72.7
		l-11.8,2.6l4.5,15.5C214.9,84.9,217.4,78.7,219.8,72.7z M210.9,94.9l-19,5l9.5,18.4C202.8,114.8,206.5,105.7,210.9,94.9z"/>
	<polygon class="st0" points="170.6,109.6 163.9,98.2 148.5,98.2 133.1,98.2 126.4,109.6 148.5,123.4 	"/>
	<path class="st1" d="M238.8,43.6c0,2.7-2.2,4.9-4.9,4.9c-2.7,0-4.9-2.2-4.9-4.9c0-2.7,2.2-4.9,4.9-4.9
		C236.6,38.7,238.8,40.9,238.8,43.6z M224.5,67c-2.7,0-4.9,2.2-4.9,4.9s2.2,4.9,4.9,4.9c2.7,0,4.9-2.2,4.9-4.9S227.2,67,224.5,67z
		 M203.4,116.2c-2.7,0-4.9,2.2-4.9,4.9s2.2,4.9,4.9,4.9s4.9-2.2,4.9-4.9S206.1,116.2,203.4,116.2z M270.3,97.1
		c-2.7,0-4.9,2.2-4.9,4.9c0,2.7,2.2,4.9,4.9,4.9s4.9-2.2,4.9-4.9C275.2,99.3,273,97.1,270.3,97.1z M295.1,141.7
		c-2.7,0-4.9,2.2-4.9,4.9c0,2.7,2.2,4.9,4.9,4.9s4.9-2.2,4.9-4.9C300,143.9,297.8,141.7,295.1,141.7z M259.6,179.5
		c-2.7,0-4.9,2.2-4.9,4.9c0,2.7,2.2,4.9,4.9,4.9s4.9-2.2,4.9-4.9C264.5,181.7,262.3,179.5,259.6,179.5z M209.6,225.6
		c-2.7,0-4.9,2.2-4.9,4.9c0,2.7,2.2,4.9,4.9,4.9c2.7,0,4.9-2.2,4.9-4.9C214.5,227.8,212.3,225.6,209.6,225.6z M152,258.9
		c-2.7,0-4.9,2.2-4.9,4.9c0,2.7,2.2,4.9,4.9,4.9s4.9-2.2,4.9-4.9C157,261.1,154.7,258.9,152,258.9z M149.3,284.5
		c-2.7,0-4.9,2.2-4.9,4.9c0,2.7,2.2,4.9,4.9,4.9c2.7,0,4.9-2.2,4.9-4.9C154.2,286.7,152,284.5,149.3,284.5z M167.8,183.2
		c-2.7,0-4.9,2.2-4.9,4.9c0,2.7,2.2,4.9,4.9,4.9c2.7,0,4.9-2.2,4.9-4.9C172.7,185.4,170.5,183.2,167.8,183.2z"/>
</g>
</svg>
