<?xml version="1.0" encoding="utf-8"?>
<!-- Generator: Adobe Illustrator 23.0.3, SVG Export Plug-In . SVG Version: 6.00 Build 0)  -->
<svg version="1.1" id="Layer_1"
    xmlns="http://www.w3.org/2000/svg"
    xmlns:xlink="http://www.w3.org/1999/xlink" x="0px" y="0px" viewBox="0 0 381 381" style="enable-background:new 0 0 381 381;" xml:space="preserve">
    <style type="text/css">
	.st0{fill:#095270;}
   @media (prefers-color-scheme: dark) {
     .st0{fill:#99b6d3;}
   }
    </style>
    <g id="Layer_3">
    </g>
    <g>
        <g>
            <polygon class="st0" points="101.7,57 85.3,67.3 78,95.4 136.9,74.2 131.2,62.7 		"/>
            <polygon class="st0" points="278.3,57 248.8,62.7 243.1,74.2 301.9,95.4 294.7,67.3 		"/>
            <polygon class="st0" points="212.4,162.2 205.6,150.6 190,150.6 174.4,150.6 167.6,162.2 190,176.2 		"/>
            <path class="st0" d="M277.2,93.6l-87.7-29.3l-86.9,29.3L39.8,200l150.3,147l150.1-147L277.2,93.6z M303.2,154.6l21.3,36
			l-77.4-20.7l55.9-15.2C303.1,154.6,303.2,154.6,303.2,154.6z M319.8,198.3l-43.9,14.1l-31.3-34.3L319.8,198.3z M274.6,105.7
			l25.8,43.7l-44.3-31.6L274.6,105.7z M250.4,120.3l-20.1,29.3l-16.1-10.8L250.4,120.3z M165.9,138.8l-16.1,10.8l-20.1-29.3
			L165.9,138.8z M166.1,145.8h47.7l17.8,30.6L190,207l-41.6-30.6L166.1,145.8z M214.2,310.6c0-0.1-0.2-0.2-0.3-0.3L167,264.2l97.6-3
			L214.2,310.6z M184,253.8l71.2-23l18.5,20.3L184,253.8z M281.8,245.3l-18.7-20.6l59.1-18.9L281.8,245.3z"/>
        </g>
    </g>
</svg>
