<svg width="621" height="592" viewBox="0 0 621 592" fill="none" xmlns="http://www.w3.org/2000/svg">
<g opacity="0.9" filter="url(#filter0_b_166_749)">
<path d="M544.902 287.084L446.314 121.523L309.298 75.8997L173.384 121.523L75.2681 287.084L302.368 523.509L544.902 287.084Z" fill="#021643" fill-opacity="0.7"/>
</g>
<g filter="url(#filter1_d_166_749)">
<path d="M544.902 287.084L446.314 121.523L309.298 75.8997L173.384 121.523L75.2681 287.084L310.243 515.984L544.902 287.084Z" stroke="#5FA0CE" stroke-width="2"/>
</g>
<g filter="url(#filter2_d_166_749)">
<path d="M225.044 176.867L265.361 197.405L247.407 209.32L225.044 176.867Z" fill="#021B44"/>
<path d="M225.044 176.867L265.361 197.405L247.407 209.32L225.044 176.867Z" stroke="#5FA0CE" stroke-width="2"/>
</g>
<g filter="url(#filter3_d_166_749)">
<path d="M395.13 176.867L354.813 197.405L372.767 209.32L395.13 176.867Z" fill="#021B44"/>
<path d="M395.13 176.867L354.813 197.405L372.767 209.32L395.13 176.867Z" stroke="#5FA0CE" stroke-width="2"/>
</g>
<path d="M218.108 73.394L171.963 64.6143L146.45 80.6059L134.953 124.348L226.927 91.267L218.108 73.394Z" fill="#021643" fill-opacity="0.7" stroke="#5FA0CE" stroke-width="2"/>
<path d="M473.718 80.6059L448.205 64.6143L402.061 73.394L393.084 91.267L485.058 124.348L473.718 80.6059Z" fill="#021643" fill-opacity="0.7" stroke="#5FA0CE" stroke-width="2"/>
<path d="M309.614 75.589L173.386 121.369L278.589 193.175H341.9L446.473 121.369L309.614 75.589Z" fill="#1F3B68" fill-opacity="0.3" stroke="#5FA0CE" stroke-width="2"/>
<path d="M347.413 202.893H272.763L245.045 250.555L310.088 298.059L375.131 250.555L347.413 202.893ZM278.432 193.173L310.088 138.927L341.743 193.173H278.432ZM365.839 301.352L392.77 347.132L370.721 348.386L365.839 301.352ZM477.499 345.721L399.227 350.424L414.661 376.607L477.499 345.721ZM338.594 393.382L372.139 396.518L367.572 352.305L343.476 353.716L338.594 393.382ZM394.975 350.738L371.194 352.149L375.761 395.734L411.196 378.331L394.975 350.738ZM397.022 346.818L480.019 341.801L367.414 296.648L397.022 346.818ZM372.769 403.259L321.112 466.756L377.494 447.785L372.769 403.259ZM320.01 462.209L370.564 400.124L337.334 396.988L320.01 462.209ZM379.226 252.906L384.266 266.233L394.187 248.516L379.226 252.906ZM450.411 211.83L478.444 194.113L426.945 203.52L450.411 211.83ZM485.846 193.957L454.821 213.398L486.004 224.529L485.846 193.957ZM474.665 335.687L415.449 292.729L371.981 294.453L474.665 335.687ZM413.244 381.624L380.958 397.458L424.898 401.535L413.244 381.624ZM486.319 289.907L421.433 292.572L486.634 339.763L486.319 289.907ZM486.004 237.699V228.448L450.884 215.906L404.424 245.224L486.004 237.699ZM486.161 241.461L407.889 248.673L486.319 268.584L486.161 241.461ZM486.319 286.144V272.504L397.81 250.084L387.73 268.114L416.708 289.123L486.319 286.144ZM362.532 291.318C362.689 291.318 362.847 291.318 362.847 291.161C362.847 291.161 362.847 291.161 363.004 291.161L410.566 289.28L384.108 269.995C383.793 269.682 383.478 269.368 383.321 268.898L354.658 274.699L362.217 291.318C362.375 291.318 362.532 291.318 362.532 291.318ZM341.586 350.267L367.099 348.7L361.272 293.826L313.868 316.246L340.326 350.738C340.798 350.424 341.113 350.267 341.586 350.267ZM334.656 393.696L339.696 353.089L268.511 376.92L334.184 394.48C334.184 394.166 334.499 393.852 334.656 393.696ZM446.317 214.338L419.071 204.618C418.441 204.461 417.968 203.834 417.811 203.364L378.596 213.084L395.92 246.165L446.317 214.338ZM376.234 400.751L381.116 447.001L375.604 452.489L317.49 472.086L310.245 516.142L423.953 405.297L376.234 400.751ZM419.386 201.012L481.122 189.724L438.285 171.38C437.655 171.067 437.182 170.596 437.182 169.969L404.424 174.359L418.913 201.325C419.071 201.169 419.228 201.169 419.386 201.012ZM486.161 344.623L483.799 346.818L416.551 379.899L428.678 400.594L426.788 402.475L486.161 344.623ZM313.553 471.773L283.63 489.959L307.096 512.692L313.553 471.773ZM314.34 469.264L333.396 397.458L278.432 436.967L314.34 469.264ZM489.784 237.385L506.635 235.817L489.784 229.86V237.385ZM444.269 123.405L408.991 156.486L437.34 169.028L444.269 123.405ZM543.33 284.106L516.242 238.482C516.085 238.639 515.77 238.796 515.455 238.796L489.784 241.148L489.941 269.525L542.543 282.851L543.33 284.106ZM532.778 284.263L490.099 273.445V285.987L532.778 284.263ZM441.277 168.715L486.161 187.842L488.681 192.075L446.632 121.367L448.206 123.876L441.277 168.715ZM543.96 285.046C543.33 285.83 542.858 286.771 542.228 287.555L490.099 289.75L490.414 340.547L545.22 287.241L543.96 285.046ZM489.784 225.783L513.722 234.406L489.469 193.8L489.784 225.783Z" fill="#1E3C6D" fill-opacity="0.6"/>
<path d="M310.083 250.242L275.12 228.293L285.672 210.42H310.083H334.494L345.046 228.293L310.083 250.242Z" stroke="#5FA0CE" stroke-width="2"/>
<g filter="url(#filter4_d_166_749)">
<path d="M441.745 164.643C437.65 163.702 434.185 167.779 436.075 171.855C436.548 172.796 437.335 173.58 438.122 173.893C442.217 175.775 446.312 172.325 445.367 168.249C444.895 166.525 443.477 165.113 441.745 164.643ZM446.154 116.355C443.32 116.355 441.115 118.55 441.115 121.372C441.115 124.194 443.32 126.389 446.154 126.389C448.989 126.389 451.194 124.194 451.194 121.372C451.194 118.55 448.832 116.355 446.154 116.355ZM486.629 194.902C489.464 194.902 491.669 192.707 491.669 189.885C491.669 187.063 489.464 184.868 486.629 184.868C483.794 184.868 481.59 187.063 481.59 189.885C481.59 192.707 483.794 194.902 486.629 194.902ZM542.695 281.288C539.861 281.288 537.656 283.483 537.656 286.305C537.656 289.127 539.861 291.322 542.695 291.322C545.53 291.322 547.735 289.127 547.735 286.305C547.735 283.483 545.53 281.288 542.695 281.288ZM513.717 232.216C510.883 232.216 508.678 234.411 508.678 237.233C508.678 240.055 510.883 242.25 513.717 242.25C516.552 242.25 518.757 240.055 518.757 237.233C518.6 234.411 516.395 232.216 513.717 232.216ZM486.629 336.789C483.794 336.789 481.59 338.984 481.59 341.806C481.59 344.628 483.794 346.823 486.629 346.823C489.464 346.823 491.669 344.628 491.669 341.806C491.669 338.984 489.464 336.789 486.629 336.789ZM379.064 398.717C379.064 395.895 376.859 393.7 374.024 393.7C371.189 393.7 368.985 395.895 368.985 398.717C368.985 401.539 371.189 403.734 374.024 403.734C376.702 403.577 379.064 401.382 379.064 398.717ZM424.106 202.898C424.106 200.076 421.901 197.881 419.066 197.881C416.231 197.881 414.027 200.076 414.027 202.898C414.027 205.72 416.231 207.915 419.066 207.915C421.901 207.915 424.106 205.72 424.106 202.898ZM396.86 242.877C394.025 242.877 391.821 245.072 391.821 247.894C391.821 250.716 394.025 252.911 396.86 252.911C399.695 252.911 401.9 250.716 401.9 247.894C401.742 245.072 399.538 242.877 396.86 242.877ZM385.206 263.258C382.371 263.258 380.166 265.453 380.166 268.275C380.166 271.097 382.371 273.292 385.206 273.292C388.041 273.292 390.246 271.097 390.246 268.275C390.246 265.453 388.041 263.258 385.206 263.258ZM363.315 288.187C360.48 288.187 358.275 290.382 358.275 293.204C358.275 296.026 360.48 298.221 363.315 298.221C366.15 298.221 368.355 296.026 368.355 293.204C368.355 290.382 365.992 288.187 363.315 288.187ZM341.739 347.136C338.904 347.136 336.699 349.331 336.699 352.153C336.699 354.975 338.904 357.17 341.739 357.17C344.574 357.17 346.779 354.975 346.779 352.153C346.779 349.331 344.416 347.136 341.739 347.136ZM335.754 390.251C332.92 390.251 330.715 392.446 330.715 395.268C330.715 398.09 332.92 400.285 335.754 400.285C338.589 400.285 340.794 398.09 340.794 395.268C340.794 392.446 338.589 390.251 335.754 390.251ZM315.911 465.192C313.076 465.192 310.871 467.387 310.871 470.209C310.871 473.031 313.076 475.226 315.911 475.226C318.745 475.226 320.95 473.031 320.95 470.209C320.95 467.387 318.745 465.192 315.911 465.192ZM379.064 443.4C376.229 443.4 374.024 445.595 374.024 448.417C374.024 451.239 376.229 453.434 379.064 453.434C381.899 453.434 384.104 451.239 384.104 448.417C384.104 445.595 381.741 443.4 379.064 443.4ZM311.028 509.718C307.564 509.091 304.414 512.07 305.201 515.519C305.516 517.4 307.249 519.125 309.139 519.439C312.603 520.066 315.753 517.087 314.966 513.638C314.651 511.756 313.076 510.032 311.028 509.718ZM426.783 398.717C423.948 398.717 421.744 400.912 421.744 403.734C421.744 406.556 423.948 408.751 426.783 408.751C429.618 408.751 431.823 406.556 431.823 403.734C431.823 400.912 429.618 398.717 426.783 398.717Z" fill="#2283A1"/>
<path d="M441.745 164.643C437.65 163.702 434.185 167.779 436.075 171.855C436.548 172.796 437.335 173.58 438.122 173.893C442.217 175.775 446.312 172.325 445.367 168.249C444.895 166.525 443.477 165.113 441.745 164.643ZM446.154 116.355C443.32 116.355 441.115 118.55 441.115 121.372C441.115 124.194 443.32 126.389 446.154 126.389C448.989 126.389 451.194 124.194 451.194 121.372C451.194 118.55 448.832 116.355 446.154 116.355ZM486.629 194.902C489.464 194.902 491.669 192.707 491.669 189.885C491.669 187.063 489.464 184.868 486.629 184.868C483.794 184.868 481.59 187.063 481.59 189.885C481.59 192.707 483.794 194.902 486.629 194.902ZM542.695 281.288C539.861 281.288 537.656 283.483 537.656 286.305C537.656 289.127 539.861 291.322 542.695 291.322C545.53 291.322 547.735 289.127 547.735 286.305C547.735 283.483 545.53 281.288 542.695 281.288ZM513.717 232.216C510.883 232.216 508.678 234.411 508.678 237.233C508.678 240.055 510.883 242.25 513.717 242.25C516.552 242.25 518.757 240.055 518.757 237.233C518.6 234.411 516.395 232.216 513.717 232.216ZM486.629 336.789C483.794 336.789 481.59 338.984 481.59 341.806C481.59 344.628 483.794 346.823 486.629 346.823C489.464 346.823 491.669 344.628 491.669 341.806C491.669 338.984 489.464 336.789 486.629 336.789ZM379.064 398.717C379.064 395.895 376.859 393.7 374.024 393.7C371.189 393.7 368.985 395.895 368.985 398.717C368.985 401.539 371.189 403.734 374.024 403.734C376.702 403.577 379.064 401.382 379.064 398.717ZM424.106 202.898C424.106 200.076 421.901 197.881 419.066 197.881C416.231 197.881 414.027 200.076 414.027 202.898C414.027 205.72 416.231 207.915 419.066 207.915C421.901 207.915 424.106 205.72 424.106 202.898ZM396.86 242.877C394.025 242.877 391.821 245.072 391.821 247.894C391.821 250.716 394.025 252.911 396.86 252.911C399.695 252.911 401.9 250.716 401.9 247.894C401.742 245.072 399.538 242.877 396.86 242.877ZM385.206 263.258C382.371 263.258 380.166 265.453 380.166 268.275C380.166 271.097 382.371 273.292 385.206 273.292C388.041 273.292 390.246 271.097 390.246 268.275C390.246 265.453 388.041 263.258 385.206 263.258ZM363.315 288.187C360.48 288.187 358.275 290.382 358.275 293.204C358.275 296.026 360.48 298.221 363.315 298.221C366.15 298.221 368.355 296.026 368.355 293.204C368.355 290.382 365.992 288.187 363.315 288.187ZM341.739 347.136C338.904 347.136 336.699 349.331 336.699 352.153C336.699 354.975 338.904 357.17 341.739 357.17C344.574 357.17 346.779 354.975 346.779 352.153C346.779 349.331 344.416 347.136 341.739 347.136ZM335.754 390.251C332.92 390.251 330.715 392.446 330.715 395.268C330.715 398.09 332.92 400.285 335.754 400.285C338.589 400.285 340.794 398.09 340.794 395.268C340.794 392.446 338.589 390.251 335.754 390.251ZM315.911 465.192C313.076 465.192 310.871 467.387 310.871 470.209C310.871 473.031 313.076 475.226 315.911 475.226C318.745 475.226 320.95 473.031 320.95 470.209C320.95 467.387 318.745 465.192 315.911 465.192ZM379.064 443.4C376.229 443.4 374.024 445.595 374.024 448.417C374.024 451.239 376.229 453.434 379.064 453.434C381.899 453.434 384.104 451.239 384.104 448.417C384.104 445.595 381.741 443.4 379.064 443.4ZM311.028 509.718C307.564 509.091 304.414 512.07 305.201 515.519C305.516 517.4 307.249 519.125 309.139 519.439C312.603 520.066 315.753 517.087 314.966 513.638C314.651 511.756 313.076 510.032 311.028 509.718ZM426.783 398.717C423.948 398.717 421.744 400.912 421.744 403.734C421.744 406.556 423.948 408.751 426.783 408.751C429.618 408.751 431.823 406.556 431.823 403.734C431.823 400.912 429.618 398.717 426.783 398.717Z" stroke="#0C4274" stroke-width="2"/>
</g>
<defs>
<filter id="filter0_b_166_749" x="71.2681" y="71.8997" width="477.634" height="455.61" filterUnits="userSpaceOnUse" color-interpolation-filters="sRGB">
<feFlood flood-opacity="0" result="BackgroundImageFix"/>
<feGaussianBlur in="BackgroundImage" stdDeviation="2"/>
<feComposite in2="SourceAlpha" operator="in" result="effect1_backgroundBlur_166_749"/>
<feBlend mode="normal" in="SourceGraphic" in2="effect1_backgroundBlur_166_749" result="shape"/>
</filter>
<filter id="filter1_d_166_749" x="0.0065918" y="0.845276" width="620.158" height="590.535" filterUnits="userSpaceOnUse" color-interpolation-filters="sRGB">
<feFlood flood-opacity="0" result="BackgroundImageFix"/>
<feColorMatrix in="SourceAlpha" type="matrix" values="0 0 0 0 0 0 0 0 0 0 0 0 0 0 0 0 0 0 127 0" result="hardAlpha"/>
<feOffset/>
<feGaussianBlur stdDeviation="37"/>
<feColorMatrix type="matrix" values="0 0 0 0 0.0784314 0 0 0 0 0.890196 0 0 0 0 0.890196 0 0 0 1 0"/>
<feBlend mode="normal" in2="BackgroundImageFix" result="effect1_dropShadow_166_749"/>
<feBlend mode="normal" in="SourceGraphic" in2="effect1_dropShadow_166_749" result="shape"/>
</filter>
<filter id="filter2_d_166_749" x="214.22" y="165.976" width="63.1207" height="54.7213" filterUnits="userSpaceOnUse" color-interpolation-filters="sRGB">
<feFlood flood-opacity="0" result="BackgroundImageFix"/>
<feColorMatrix in="SourceAlpha" type="matrix" values="0 0 0 0 0 0 0 0 0 0 0 0 0 0 0 0 0 0 127 0" result="hardAlpha"/>
<feOffset/>
<feGaussianBlur stdDeviation="5"/>
<feColorMatrix type="matrix" values="0 0 0 0 0.0784314 0 0 0 0 0.84149 0 0 0 0 0.890196 0 0 0 0.5 0"/>
<feBlend mode="normal" in2="BackgroundImageFix" result="effect1_dropShadow_166_749"/>
<feBlend mode="normal" in="SourceGraphic" in2="effect1_dropShadow_166_749" result="shape"/>
</filter>
<filter id="filter3_d_166_749" x="342.833" y="165.976" width="63.1202" height="54.7213" filterUnits="userSpaceOnUse" color-interpolation-filters="sRGB">
<feFlood flood-opacity="0" result="BackgroundImageFix"/>
<feColorMatrix in="SourceAlpha" type="matrix" values="0 0 0 0 0 0 0 0 0 0 0 0 0 0 0 0 0 0 127 0" result="hardAlpha"/>
<feOffset/>
<feGaussianBlur stdDeviation="5"/>
<feColorMatrix type="matrix" values="0 0 0 0 0.0784314 0 0 0 0 0.84149 0 0 0 0 0.890196 0 0 0 0.5 0"/>
<feBlend mode="normal" in2="BackgroundImageFix" result="effect1_dropShadow_166_749"/>
<feBlend mode="normal" in="SourceGraphic" in2="effect1_dropShadow_166_749" result="shape"/>
</filter>
<filter id="filter4_d_166_749" x="280.077" y="91.3546" width="292.659" height="453.167" filterUnits="userSpaceOnUse" color-interpolation-filters="sRGB">
<feFlood flood-opacity="0" result="BackgroundImageFix"/>
<feColorMatrix in="SourceAlpha" type="matrix" values="0 0 0 0 0 0 0 0 0 0 0 0 0 0 0 0 0 0 127 0" result="hardAlpha"/>
<feOffset/>
<feGaussianBlur stdDeviation="12"/>
<feColorMatrix type="matrix" values="0 0 0 0 0.0784314 0 0 0 0 0.695373 0 0 0 0 0.890196 0 0 0 1 0"/>
<feBlend mode="normal" in2="BackgroundImageFix" result="effect1_dropShadow_166_749"/>
<feBlend mode="normal" in="SourceGraphic" in2="effect1_dropShadow_166_749" result="shape"/>
</filter>
</defs>
</svg>
